<?xml version="1.0" encoding="UTF-8" standalone="no"?>
<!-- Created with Inkscape (http://www.inkscape.org/) -->

<svg
   width="150"
   height="150"
   viewBox="0 0 39.687499 39.6875"
   version="1.1"
   id="svg1"
   xml:space="preserve"
   xmlns="http://www.w3.org/2000/svg"
   xmlns:svg="http://www.w3.org/2000/svg"><defs
     id="defs1" /><g
     id="layer1"><g
       id="g4"
       transform="matrix(1.1828991,0,0,1.1828991,-3.2593444,-10.487287)"
       style="stroke-width:0.845381"><circle
         style="opacity:0.991779;fill:#f1c40f;fill-opacity:1;stroke:none;stroke-width:1.34203;stroke-linecap:round;stroke-miterlimit:21.2"
         id="path1"
         cx="27.707472"
         cy="23.250662"
         r="8.598958" /><path
         id="circle1"
         style="opacity:0.991779;fill:#e6e6e6;fill-opacity:1;stroke:none;stroke-width:1.34203;stroke-linecap:round;stroke-miterlimit:21.2"
         d="m 15.780432,16.72301 c -4.609391,-1.5e-5 -7.3589618,4.388797 -6.395992,8.16746 -2.8489969,-0.452947 -6.6291487,1.747003 -6.6290527,5.835303 -7.66e-5,3.261108 2.6434413,5.904857 5.9045491,5.905066 l 20.8250856,-0.06356 h 0.01447 v -10e-4 c 2.599381,-0.0079 4.702541,-2.117114 4.703072,-4.716507 3.4e-5,-3.207171 -2.913605,-4.994281 -5.2927,-4.676201 1.042889,-3.592113 -3.375659,-6.854517 -6.539653,-4.163053 -0.166845,-3.518512 -3.067313,-6.285921 -6.589778,-6.287472 z" /></g></g></svg>
